<svg viewBox="0 0 24 24" fill="none" xmlns="http://www.w3.org/2000/svg">
  <defs>
    <linearGradient id="neon-grad" x1="0" y1="0" x2="24" y2="24" gradientUnits="userSpaceOnUse">
      <stop stop-color="#FF003C"/>
      <stop offset="1" stop-color="#DC143C"/>
    </linearGradient>
    <filter id="neon-glow" x="-20%" y="-20%" width="140%" height="140%">
      <feGaussianBlur stdDeviation="0.4" result="blur"/>
      <feComposite in="SourceGraphic" in2="blur" operator="over"/>
    </filter>
  </defs>
  <g filter="url(#neon-glow)" stroke="url(#neon-grad)" stroke-width="1.8" stroke-linecap="round" stroke-linejoin="round">
    <path d="M11.562 4.266a.5.5 0 0 1 .876 0L15.39 9.87a1 1 0 0 0 1.516.294L21.183 6.5a.5.5 0 0 1 .798.519l-2.834 10.246a1 1 0 0 1-.956.734H5.81a1 1 0 0 1-.957-.734L2.02 7.02a.5.5 0 0 1 .798-.519l4.276 3.664a1 1 0 0 0 1.516-.294z"/>
    <path d="M5 20h14"/>
  </g>
</svg>